<svg xmlns="http://www.w3.org/2000/svg" version="1.1" xmlns:xlink="http://www.w3.org/1999/xlink" xmlns:svgjs="http://svgjs.dev/svgjs" width="1500" height="1500" viewBox="0 0 1500 1500"><rect width="1500" height="1500" fill="#000000"></rect><g transform="matrix(0.6666666666666666,0,0,0.6666666666666666,249.39393939393938,435.99032258064517)"><svg viewBox="0 0 396 248" data-background-color="#eae5df" preserveAspectRatio="xMidYMid meet" height="939" width="1500" xmlns="http://www.w3.org/2000/svg" xmlns:xlink="http://www.w3.org/1999/xlink"><g id="tight-bounds" transform="matrix(1,0,0,1,0.2400000000000091,0.4000000000000057)"><svg viewBox="0 0 395.52 247.2" height="247.2" width="395.52"><g><svg></svg></g><g><svg viewBox="0 0 395.52 247.2" height="247.2" width="395.52"><mask id="afb95c0f-2672-407a-8773-e377d6d6db7f"><rect width="640" height="400" fill="white"></rect><g transform="matrix(1,0,0,1,39.55199999999999,81.01812317959482)"><svg viewBox="0 0 316.416 85.16375364081034" height="85.16375364081034" width="316.416"><g><svg viewBox="0 0 316.416 85.16375364081034" height="85.16375364081034" width="316.416"><g><svg viewBox="0 0 316.416 85.16375364081034" height="85.16375364081034" width="316.416"><g><svg viewBox="0 0 316.416 85.16375364081034" height="85.16375364081034" width="316.416"><g id="SvgjsG4116"><svg viewBox="0 0 316.416 85.16375364081034" height="85.16375364081034" width="316.416" id="SvgjsSvg4115"><g><svg viewBox="0 0 316.416 50.75405811700892" height="50.75405811700892" width="316.416"><g transform="matrix(1,0,0,1,0,0)"><svg width="316.416" viewBox="3.5 -38.7 259.08 42.400000000000006" height="50.75405811700892" data-palette-color="#ca0839"><path d="M17.5 0L6.5 0 6.5-35 17.5-35Q23.3-35 27.6-32.8 31.9-30.6 34.3-26.68 36.7-22.75 36.7-17.5L36.7-17.5Q36.7-12.25 34.3-8.33 31.9-4.4 27.6-2.2 23.3 0 17.5 0L17.5 0ZM17.5-33.8L17.5-33.8 9.9-33.8 9.9-1.2 17.5-1.2Q24.75-1.2 28.83-5.5 32.9-9.8 32.9-17.5L32.9-17.5Q32.9-25.2 28.83-29.5 24.75-33.8 17.5-33.8ZM50.6 0L47.2 0 47.2-35 50.6-35 50.6 0ZM60.55-1.1L60.55-1.1 60.85-4.1 61.15-4.1Q63.1-2.4 65.55-1.45 68-0.5 70.4-0.5L70.4-0.5Q73.8-0.5 75.9-2.38 78-4.25 78-7.4L78-7.4Q78-9.15 77.22-10.65 76.45-12.15 74.67-13.7 72.9-15.25 69.8-17.05L69.8-17.05Q67.65-18.3 65.7-19.68 63.75-21.05 62.5-22.88 61.25-24.7 61.25-27.25L61.25-27.25Q61.25-31.05 64-33.38 66.75-35.7 71.25-35.7L71.25-35.7Q73.25-35.7 75.55-35.27 77.85-34.85 79.1-34.2L79.1-34.2 78.85-31.4 78.55-31.4Q75.7-34.5 71.25-34.5L71.25-34.5Q68.05-34.5 66.1-32.88 64.15-31.25 64.15-28.5L64.15-28.5Q64.15-26.45 65.22-24.98 66.3-23.5 68-22.33 69.7-21.15 71.65-20.05L71.65-20.05Q73.9-18.75 76.02-17.3 78.15-15.85 79.52-13.83 80.9-11.8 80.9-8.75L80.9-8.75Q80.9-5.95 79.6-3.83 78.3-1.7 75.92-0.5 73.55 0.7 70.4 0.7L70.4 0.7Q68.4 0.7 65.7 0.2 63-0.3 60.55-1.1ZM94.14 0L90.74 0 90.74-35 94.14-35 94.14-18.8 115.14-18.8 115.14-35 118.54-35 118.54 0 115.14 0 115.14-17.6 94.14-17.6 94.14 0ZM142.54 0L131.54 0 131.54-35 142.54-35Q148.34-35 152.64-32.8 156.94-30.6 159.34-26.68 161.74-22.75 161.74-17.5L161.74-17.5Q161.74-12.25 159.34-8.33 156.94-4.4 152.64-2.2 148.34 0 142.54 0L142.54 0ZM142.54-33.8L142.54-33.8 134.94-33.8 134.94-1.2 142.54-1.2Q149.79-1.2 153.87-5.5 157.94-9.8 157.94-17.5L157.94-17.5Q157.94-25.2 153.87-29.5 149.79-33.8 142.54-33.8ZM170.19 0L166.54 0 179.99-35 183.09-35 196.54 0 192.89 0 186.69-16.4 175.34-16.4 170.19 0ZM180.64-32.4L180.34-32.4 175.69-17.6 186.24-17.6 180.64-32.4ZM201.59-1.1L201.59-1.1 201.89-4.1 202.19-4.1Q204.14-2.4 206.59-1.45 209.04-0.5 211.44-0.5L211.44-0.5Q214.84-0.5 216.94-2.38 219.04-4.25 219.04-7.4L219.04-7.4Q219.04-9.15 218.26-10.65 217.49-12.15 215.71-13.7 213.94-15.25 210.84-17.05L210.84-17.05Q208.69-18.3 206.74-19.68 204.79-21.05 203.54-22.88 202.29-24.7 202.29-27.25L202.29-27.25Q202.29-31.05 205.04-33.38 207.79-35.7 212.29-35.7L212.29-35.7Q214.29-35.7 216.59-35.27 218.89-34.85 220.14-34.2L220.14-34.2 219.89-31.4 219.59-31.4Q216.74-34.5 212.29-34.5L212.29-34.5Q209.09-34.5 207.14-32.88 205.19-31.25 205.19-28.5L205.19-28.5Q205.19-26.45 206.26-24.98 207.34-23.5 209.04-22.33 210.74-21.15 212.69-20.05L212.69-20.05Q214.94-18.75 217.06-17.3 219.19-15.85 220.56-13.83 221.94-11.8 221.94-8.75L221.94-8.75Q221.94-5.95 220.64-3.83 219.34-1.7 216.96-0.5 214.59 0.7 211.44 0.7L211.44 0.7Q209.44 0.7 206.74 0.2 204.04-0.3 201.59-1.1ZM235.18 0L231.78 0 231.78-35 235.18-35 235.18-18.8 256.18-18.8 256.18-35 259.58-35 259.58 0 256.18 0 256.18-17.6 235.18-17.6 235.18 0Z" opacity="1" transform="matrix(1,0,0,1,0,0)" fill="black" class="wordmark-text-0" id="SvgjsPath4114" stroke-width="5" stroke="black" stroke-linejoin="round"></path></svg></g></svg></g><g transform="matrix(1,0,0,1,2.5,61.28879403185743)"><svg viewBox="0 0 311.416 23.874959608952917" height="23.874959608952917" width="311.416"><g transform="matrix(1,0,0,1,0,0)"><svg width="311.416" viewBox="-1.75 -42.25 583.99 45.7" height="23.874959608952917" data-palette-color="#902641"><path d="M14.7 0.2L14.7 0.2Q13.3 0.2 12.15-0.3 11-0.8 10.45-1.55L10.45-1.55Q11.25-4.2 11.68-7.3 12.1-10.4 12.1-13.45L12.1-13.45Q12.1-17.25 11.4-20.58 10.7-23.9 9.28-25.95 7.85-28 5.6-28L5.6-28Q3.9-28 1.75-26.6L1.75-26.6 1.25-26.8Q1.5-31.1 3.4-33.55 5.3-36 8.2-36L8.2-36Q10.3-36 12.03-34.8 13.75-33.6 15.08-31.6 16.4-29.6 17.38-27.1 18.35-24.6 18.95-22L18.95-22Q20.05-27.15 21.8-30.28 23.55-33.4 25.55-34.83 27.55-36.25 29.4-36.25L29.4-36.25Q31.75-36.25 33.43-34.35 35.1-32.45 35.1-29.45L35.1-29.45Q35.1-27.8 34.5-25.9L34.5-25.9Q33.05-26.7 31.4-26.7L31.4-26.7Q29.25-26.7 27.1-25.43 24.95-24.15 23.18-21.83 21.4-19.5 20.4-16.35L20.4-16.35Q20.55-13.75 20.55-11.85L20.55-11.85Q20.55-9.25 20.25-6.98 19.95-4.7 19.15-1.65L19.15-1.65Q18.2-0.7 17.03-0.25 15.85 0.2 14.7 0.2ZM46.55 0.35L46.55 0.35Q42.8 0.35 40.35-1.15 37.9-2.65 36.72-5.13 35.55-7.6 35.55-10.4L35.55-10.4Q35.55-13.05 36.52-15.7 37.5-18.35 39.37-20.53 41.25-22.7 43.95-24.03 46.65-25.35 50.15-25.35L50.15-25.35Q53.9-25.35 56.32-23.83 58.75-22.3 59.92-19.8 61.1-17.3 61.1-14.45L61.1-14.45Q61.1-11.85 60.15-9.22 59.2-6.6 57.32-4.42 55.45-2.25 52.75-0.95 50.05 0.35 46.55 0.35ZM47.9-3.9L47.9-3.9Q49.25-3.9 50.15-5.3 51.05-6.7 51.5-8.88 51.95-11.05 51.95-13.3L51.95-13.3Q51.95-15.3 51.57-17.07 51.2-18.85 50.45-19.98 49.7-21.1 48.5-21.1L48.5-21.1Q47.2-21.1 46.27-19.7 45.35-18.3 44.9-16.15 44.45-14 44.45-11.7L44.45-11.7Q44.45-9.7 44.82-7.93 45.2-6.15 45.95-5.03 46.7-3.9 47.9-3.9ZM70.65 0.2L70.65 0.2Q68.4 0.2 66.87-1.65 65.34-3.5 65.34-6.6L65.34-6.6Q65.34-8.3 65.75-10.25 66.15-12.2 66.55-13.95L66.55-13.95Q66.9-15.25 67.12-16.38 67.34-17.5 67.34-18.2L67.34-18.2Q67.34-19.1 66.97-19.5 66.59-19.9 66.09-19.9L66.09-19.9Q65.59-19.9 65.09-19.58 64.59-19.25 64.3-18.6L64.3-18.6 63.9-18.75Q63.9-20.8 64.9-22.25 65.9-23.7 67.45-24.45 69-25.2 70.59-25.2L70.59-25.2Q71.9-25.2 73.09-24.68 74.3-24.15 75.07-23.05 75.84-21.95 75.84-20.3L75.84-20.3Q75.84-19.3 75.57-17.9 75.3-16.5 74.95-15L74.95-15Q74.59-13.45 74.27-11.88 73.95-10.3 73.95-9.1L73.95-9.1Q73.95-8 74.3-7.3 74.65-6.6 75.34-6.6L75.34-6.6Q76.65-6.6 78.27-9 79.9-11.4 80.9-15.45L80.9-15.45Q81.09-16.25 81.25-17.15 81.4-18.05 81.4-19L81.4-19Q81.4-19.75 81.3-20.53 81.2-21.3 81-22.1L81-22.1 81-22.45Q81.8-23.8 83.07-24.5 84.34-25.2 85.65-25.2L85.65-25.2Q87.4-25.2 88.8-24 90.2-22.8 90.2-20.5L90.2-20.5Q90.2-19.15 89.7-17.38 89.2-15.6 88.59-13.7L88.59-13.7Q88-11.85 87.5-10.05 87-8.25 87-6.85L87-6.85Q87-4.8 88.45-4.8L88.45-4.8Q88.84-4.8 89.42-5.03 90-5.25 90.5-5.95L90.5-5.95 90.84-5.85Q90.84-4.05 89.87-2.68 88.9-1.3 87.4-0.55 85.9 0.2 84.3 0.2L84.3 0.2Q82.25 0.2 80.62-1.3 79-2.8 79-6.2L79-6.2 79-6.3Q76.95-2.8 74.75-1.3 72.55 0.2 70.65 0.2ZM99.29 0.2L99.29 0.2Q97.49 0.2 96.09-1.28 94.69-2.75 94.69-5.45L94.69-5.45Q94.69-6.75 94.99-8.4 95.29-10.05 95.69-11.78 96.09-13.5 96.39-15.03 96.69-16.55 96.69-17.55L96.69-17.55Q96.69-18.6 96.32-19.23 95.94-19.85 95.34-19.85L95.34-19.85Q94.39-19.85 93.39-18.55L93.39-18.55 93.09-18.75Q93.04-19.55 93.44-20.65 93.84-21.75 94.69-22.78 95.54-23.8 96.87-24.5 98.19-25.2 99.99-25.2L99.99-25.2Q102.64-25.2 103.84-23.68 105.04-22.15 105.04-20L105.04-20Q105.04-19.65 105.02-19.28 104.99-18.9 104.94-18.55L104.94-18.55Q106.74-21.8 108.72-23.53 110.69-25.25 112.39-25.25L112.39-25.25Q113.99-25.25 114.74-24 115.49-22.75 115.49-21L115.49-21Q115.49-19.4 114.87-17.75 114.24-16.1 113.02-15.03 111.79-13.95 110.04-14L110.04-14 109.84-14.1Q109.79-15.4 108.99-16.15 108.19-16.9 107.19-16.9L107.19-16.9Q105.84-16.9 104.67-15.55 103.49-14.2 103.49-11.65L103.49-11.65Q103.49-10.1 103.84-8.3 104.19-6.5 104.19-5.25L104.19-5.25Q104.19-3.75 103.49-2.5 102.79-1.25 101.69-0.53 100.59 0.2 99.29 0.2ZM131.59 0.2L131.59 0.2Q129.79 0.2 128.34-1.3 126.89-2.8 126.89-6.25L126.89-6.25Q126.89-9.05 127.54-11.75 128.19-14.45 129.01-17.23 129.84-20 130.41-22.98 130.99-25.95 130.79-29.25L130.79-29.25Q129.44-29.05 128.14-28.55 126.84-28.05 125.59-27.1L125.59-27.1Q125.59-30.25 126.14-32.23 126.69-34.2 128.29-35.1 129.89-36 133.04-36L133.04-36Q134.74-36 136.84-35.75 138.94-35.5 141.16-35.25 143.39-35 145.39-35L145.39-35Q147.34-35 148.89-35.38 150.44-35.75 151.29-36.75L151.29-36.75Q152.29-36.1 152.81-34.98 153.34-33.85 153.34-32.55L153.34-32.55Q153.34-31.2 152.71-29.93 152.09-28.65 150.79-27.83 149.49-27 147.39-27L147.39-27Q145.19-27 142.59-27.7 139.99-28.4 137.24-28.9L137.24-28.9Q137.49-27.8 137.61-26.7 137.74-25.6 137.74-24.45L137.74-24.45Q137.74-23.2 137.64-21.98 137.54-20.75 137.34-19.45L137.34-19.45Q138.39-20 139.89-20.45 141.39-20.9 142.96-21.2 144.54-21.5 145.79-21.5L145.79-21.5Q146.59-21.5 147.19-21.35L147.19-21.35Q147.69-20.3 147.69-18.8L147.69-18.8Q147.69-16.4 146.49-13.9L146.49-13.9 146.14-13.75Q144.29-14.75 141.86-15.3 139.44-15.85 136.79-16.05L136.79-16.05Q136.29-13.2 135.84-10.25 135.39-7.3 135.39-4.2L135.39-4.2Q135.39-3.55 135.41-2.85 135.44-2.15 135.49-1.45L135.49-1.45Q133.84 0.2 131.59 0.2ZM171.59 0.25L171.59 0.25Q169.84 0.25 168.54-0.9 167.24-2.05 167.24-4.65L167.24-4.65Q167.24-4.9 167.24-5.15 167.24-5.4 167.29-5.65L167.29-5.65Q165.79-2.65 163.91-1.23 162.04 0.2 160.14 0.2L160.14 0.2Q158.39 0.2 156.84-1.03 155.29-2.25 154.34-4.65 153.39-7.05 153.39-10.45L153.39-10.45Q153.39-13.95 154.36-16.7 155.34-19.45 156.94-21.35 158.54-23.25 160.44-24.23 162.34-25.2 164.14-25.2L164.14-25.2Q166.14-25.2 167.74-23.98 169.34-22.75 169.94-20.1L169.94-20.1Q170.09-20.95 170.16-21.65 170.24-22.35 170.24-22.6L170.24-22.6Q170.29-23.95 171.61-24.6 172.94-25.25 174.54-25.25L174.54-25.25Q175.94-25.25 177.19-24.7 178.44-24.15 178.89-22.85L178.89-22.85 178.99-22.55Q178.39-21.2 177.79-19.3 177.19-17.4 176.69-15.33 176.19-13.25 175.89-11.28 175.59-9.3 175.59-7.8L175.59-7.8Q175.59-6.15 175.94-5.53 176.29-4.9 176.79-4.9L176.79-4.9Q177.64-4.9 178.34-6.1L178.34-6.1 178.74-5.9Q178.74-4.2 177.64-2.8 176.54-1.4 174.89-0.58 173.24 0.25 171.59 0.25ZM163.44-6.1L163.44-6.1Q164.74-6.1 166.31-8.43 167.89-10.75 169.04-15.1L169.04-15.1Q169.14-15.55 169.24-15.98 169.34-16.4 169.39-16.8L169.39-16.8Q168.59-18.65 167.71-19.43 166.84-20.2 165.99-20.2L165.99-20.2Q164.74-20.2 163.66-18.88 162.59-17.55 161.91-15.55 161.24-13.55 161.24-11.55L161.24-11.55Q161.24-8.8 161.86-7.45 162.49-6.1 163.44-6.1ZM190.08 0.45L190.08 0.45Q186.98 0.45 184.93-0.4 182.88-1.25 181.88-2.58 180.88-3.9 180.88-5.25L180.88-5.25Q180.88-7.15 182.58-8.63 184.28-10.1 187.18-10.1L187.18-10.1Q187.18-7.55 187.83-6.03 188.48-4.5 189.51-3.85 190.53-3.2 191.48-3.2L191.48-3.2Q192.63-3.2 193.41-3.88 194.18-4.55 194.18-5.55L194.18-5.55Q194.18-6.95 192.73-8 191.28-9.05 188.98-10.35L188.98-10.35Q187.83-11.05 186.48-11.98 185.13-12.9 184.18-14.23 183.23-15.55 183.23-17.4L183.23-17.4Q183.23-19.35 184.36-20.85 185.48-22.35 187.33-23.38 189.18-24.4 191.33-24.93 193.48-25.45 195.53-25.45L195.53-25.45Q199.38-25.45 201.33-23.9 203.28-22.35 203.28-20.6L203.28-20.6Q203.28-19.1 201.78-17.9 200.28-16.7 197.18-16.7L197.18-16.7Q197.23-19.25 196.13-20.43 195.03-21.6 193.78-21.6L193.78-21.6Q192.88-21.6 192.28-21.05 191.68-20.5 191.68-19.45L191.68-19.45Q191.68-18.25 192.46-17.38 193.23-16.5 194.41-15.83 195.58-15.15 196.83-14.55L196.83-14.55Q198.53-13.75 200.03-12.85 201.53-11.95 202.48-10.8 203.43-9.65 203.43-8L203.43-8Q203.43-5.75 201.61-3.83 199.78-1.9 196.73-0.73 193.68 0.45 190.08 0.45ZM213.43 0.2L213.43 0.2Q211.83 0.2 210.41-0.53 208.98-1.25 208.11-2.8 207.23-4.35 207.23-6.75L207.23-6.75Q207.23-8.05 207.48-10.15 207.73-12.25 208.16-14.75 208.58-17.25 209.03-19.75L209.03-19.75Q208.03-19.7 207.11-19.55 206.18-19.4 205.28-19.2L205.28-19.2 205.18-19.55Q206.18-20.75 207.28-21.6 208.38-22.45 209.58-23L209.58-23Q210.23-26.3 210.68-28.73 211.13-31.15 211.13-31.6L211.13-31.6Q211.13-32.45 212.46-33 213.78-33.55 215.43-33.55L215.43-33.55Q216.88-33.55 218.16-33 219.43-32.45 219.88-31.15L219.88-31.15Q219.58-30.85 219.03-28.93 218.48-27 217.88-24.25L217.88-24.25Q218.83-24.2 219.83-24.15 220.83-24.1 221.88-24L221.88-24Q221.98-23.7 222.03-23.35 222.08-23 222.08-22.6L222.08-22.6Q222.08-21.85 221.86-20.98 221.63-20.1 221.33-19.4L221.33-19.4Q220.13-19.5 219.08-19.63 218.03-19.75 217.03-19.8L217.03-19.8Q216.63-17.65 216.31-15.5 215.98-13.35 215.81-11.6 215.63-9.85 215.63-8.85L215.63-8.85Q215.63-6.75 216.41-6.05 217.18-5.35 218.28-5.35L218.28-5.35Q219.28-5.35 220.08-5.75 220.88-6.15 221.23-6.7L221.23-6.7 221.73-6.55Q221.43-4.5 220.13-2.98 218.83-1.45 217.03-0.63 215.23 0.2 213.43 0.2ZM255.38 0.35L255.38 0.35Q253.58 0.35 251.3-0.3 249.03-0.95 246.55-1.73 244.08-2.5 241.63-2.85L241.63-2.85Q239.93-1.25 238.45-0.58 236.98 0.1 235.83 0.1L235.83 0.1Q234.38 0.1 233.38-0.75 232.38-1.6 231.88-2.93 231.38-4.25 231.38-5.65L231.38-5.65Q231.38-7.1 231.9-8.4 232.43-9.7 233.53-10.53 234.63-11.35 236.33-11.35L236.33-11.35Q236.68-11.35 237.08-11.3 237.48-11.25 237.93-11.15L237.93-11.15Q238.88-14.05 239.6-17.57 240.33-21.1 240.75-24.5 241.18-27.9 241.18-30.4L241.18-30.4Q241.18-31.4 241.08-31.83 240.98-32.25 240.73-32.7L240.73-32.7 240.68-32.85Q241.28-34.45 242.68-35.35 244.08-36.25 245.63-36.25L245.63-36.25Q247.33-36.25 248.43-35.02 249.53-33.8 249.53-30.95L249.53-30.95Q249.53-29.15 249.1-26.48 248.68-23.8 247.93-20.73 247.18-17.65 246.28-14.65 245.38-11.65 244.48-9.3L244.48-9.3Q246.68-8.8 248.9-8.15 251.13-7.5 253.28-7.5L253.28-7.5Q254.93-7.5 256.45-8.1 257.98-8.7 259.33-10.3L259.33-10.3Q260.33-9.65 260.8-8.45 261.28-7.25 261.28-5.9L261.28-5.9Q261.28-4.4 260.65-2.98 260.03-1.55 258.73-0.6 257.43 0.35 255.38 0.35ZM282.37 0.25L282.37 0.25Q280.62 0.25 279.32-0.9 278.02-2.05 278.02-4.65L278.02-4.65Q278.02-4.9 278.02-5.15 278.02-5.4 278.07-5.65L278.07-5.65Q276.57-2.65 274.7-1.23 272.82 0.2 270.92 0.2L270.92 0.2Q269.17 0.2 267.62-1.03 266.07-2.25 265.12-4.65 264.17-7.05 264.17-10.45L264.17-10.45Q264.17-13.95 265.15-16.7 266.12-19.45 267.72-21.35 269.32-23.25 271.22-24.23 273.12-25.2 274.92-25.2L274.92-25.2Q276.92-25.2 278.52-23.98 280.12-22.75 280.72-20.1L280.72-20.1Q280.87-20.95 280.95-21.65 281.02-22.35 281.02-22.6L281.02-22.6Q281.07-23.95 282.4-24.6 283.72-25.25 285.32-25.25L285.32-25.25Q286.72-25.25 287.97-24.7 289.22-24.15 289.67-22.85L289.67-22.85 289.77-22.55Q289.17-21.2 288.57-19.3 287.97-17.4 287.47-15.33 286.97-13.25 286.67-11.28 286.37-9.3 286.37-7.8L286.37-7.8Q286.37-6.15 286.72-5.53 287.07-4.9 287.57-4.9L287.57-4.9Q288.42-4.9 289.12-6.1L289.12-6.1 289.52-5.9Q289.52-4.2 288.42-2.8 287.32-1.4 285.67-0.58 284.02 0.25 282.37 0.25ZM274.22-6.1L274.22-6.1Q275.52-6.1 277.1-8.43 278.67-10.75 279.82-15.1L279.82-15.1Q279.92-15.55 280.02-15.98 280.12-16.4 280.17-16.8L280.17-16.8Q279.37-18.65 278.5-19.43 277.62-20.2 276.77-20.2L276.77-20.2Q275.52-20.2 274.45-18.88 273.37-17.55 272.7-15.55 272.02-13.55 272.02-11.55L272.02-11.55Q272.02-8.8 272.65-7.45 273.27-6.1 274.22-6.1ZM298.22 0.15L298.22 0.15Q296.37 0.15 294.87-1.33 293.37-2.8 293.37-5.45L293.37-5.45Q293.37-6.75 293.72-8.4 294.07-10.05 294.5-11.75 294.92-13.45 295.27-14.95 295.62-16.45 295.62-17.4L295.62-17.4Q295.62-18.4 295.22-18.98 294.82-19.55 294.17-19.55L294.17-19.55Q293.32-19.55 292.32-18.55L292.32-18.55 292.02-18.75Q291.97-19.55 292.37-20.65 292.77-21.75 293.6-22.78 294.42-23.8 295.72-24.5 297.02-25.2 298.82-25.2L298.82-25.2Q301.47-25.2 302.75-23.68 304.02-22.15 304.02-19.95L304.02-19.95Q304.02-19.15 303.87-18.4L303.87-18.4Q304.92-19.95 306.47-21.53 308.02-23.1 309.9-24.15 311.77-25.2 313.77-25.2L313.77-25.2Q316.12-25.2 316.97-23.7 317.82-22.2 317.82-19.95L317.82-19.95Q317.82-17.85 317.37-15.45 316.92-13.05 316.47-10.83 316.02-8.6 316.02-7.1L316.02-7.1Q316.02-5.1 317.17-5.1L317.17-5.1Q317.77-5.1 318.22-5.48 318.67-5.85 318.82-6.2L318.82-6.2 319.17-6.05Q319.17-4.2 318.15-2.8 317.12-1.4 315.57-0.63 314.02 0.15 312.42 0.15L312.42 0.15Q310.47 0.15 308.97-1.2 307.47-2.55 307.47-5.6L307.47-5.6Q307.47-7.4 307.95-9.5 308.42-11.6 308.87-13.55 309.32-15.5 309.32-16.75L309.32-16.75Q309.32-17.5 309.05-17.93 308.77-18.35 308.07-18.35L308.07-18.35Q306.92-18.35 305.55-17.3 304.17-16.25 303.2-14.5 302.22-12.75 302.22-10.65L302.22-10.65Q302.22-9.3 302.55-8.05 302.87-6.8 302.87-5.35L302.87-5.35Q302.87-2.65 301.47-1.25 300.07 0.15 298.22 0.15ZM332.57 0.35L332.57 0.35Q328.92 0.35 326.52-1.13 324.12-2.6 322.92-5.03 321.72-7.45 321.72-10.25L321.72-10.25Q321.72-12.9 322.74-15.58 323.77-18.25 325.74-20.45 327.72-22.65 330.54-24 333.37-25.35 336.92-25.35L336.92-25.35Q341.32-25.35 343.34-23.38 345.37-21.4 345.37-18.6L345.37-18.6Q345.37-16.2 344.09-14.18 342.82-12.15 340.72-10.93 338.62-9.7 336.12-9.7L336.12-9.7Q334.82-9.7 333.47-10.1 332.12-10.5 330.82-11.35L330.82-11.35Q331.07-8.25 332.62-6.85 334.17-5.45 336.32-5.45L336.32-5.45Q337.82-5.45 339.32-6.03 340.82-6.6 342.09-7.53 343.37-8.45 344.07-9.5L344.07-9.5 344.42-9.25Q344.42-6.65 343.34-4.83 342.27-3 340.52-1.85 338.77-0.7 336.69-0.18 334.62 0.35 332.57 0.35ZM333.72-13.15L333.72-13.15Q335.32-13.15 336.32-14.08 337.32-15 337.82-16.25 338.32-17.5 338.32-18.45L338.32-18.45Q338.32-19.6 337.67-20.38 337.02-21.15 335.87-21.15L335.87-21.15Q334.97-21.15 333.89-20.5 332.82-19.85 331.97-18.28 331.12-16.7 330.87-13.9L330.87-13.9Q332.47-13.15 333.72-13.15ZM363.96 0.2L363.96 0.2Q362.36 0.2 360.94-0.53 359.51-1.25 358.64-2.8 357.76-4.35 357.76-6.75L357.76-6.75Q357.76-8.05 358.01-10.15 358.26-12.25 358.69-14.75 359.11-17.25 359.56-19.75L359.56-19.75Q358.56-19.7 357.64-19.55 356.71-19.4 355.81-19.2L355.81-19.2 355.71-19.55Q356.71-20.75 357.81-21.6 358.91-22.45 360.11-23L360.11-23Q360.76-26.3 361.21-28.73 361.66-31.15 361.66-31.6L361.66-31.6Q361.66-32.45 362.99-33 364.31-33.55 365.96-33.55L365.96-33.55Q367.41-33.55 368.69-33 369.96-32.45 370.41-31.15L370.41-31.15Q370.11-30.85 369.56-28.93 369.01-27 368.41-24.25L368.41-24.25Q369.36-24.2 370.36-24.15 371.36-24.1 372.41-24L372.41-24Q372.51-23.7 372.56-23.35 372.61-23 372.61-22.6L372.61-22.6Q372.61-21.85 372.39-20.98 372.16-20.1 371.86-19.4L371.86-19.4Q370.66-19.5 369.61-19.63 368.56-19.75 367.56-19.8L367.56-19.8Q367.16-17.65 366.84-15.5 366.51-13.35 366.34-11.6 366.16-9.85 366.16-8.85L366.16-8.85Q366.16-6.75 366.94-6.05 367.71-5.35 368.81-5.35L368.81-5.35Q369.81-5.35 370.61-5.75 371.41-6.15 371.76-6.7L371.76-6.7 372.26-6.55Q371.96-4.5 370.66-2.98 369.36-1.45 367.56-0.63 365.76 0.2 363.96 0.2ZM385.41 0.35L385.41 0.35Q381.66 0.35 379.21-1.15 376.76-2.65 375.59-5.13 374.41-7.6 374.41-10.4L374.41-10.4Q374.41-13.05 375.39-15.7 376.36-18.35 378.24-20.53 380.11-22.7 382.81-24.03 385.51-25.35 389.01-25.35L389.01-25.35Q392.76-25.35 395.19-23.83 397.61-22.3 398.79-19.8 399.96-17.3 399.96-14.45L399.96-14.45Q399.96-11.85 399.01-9.22 398.06-6.6 396.19-4.42 394.31-2.25 391.61-0.95 388.91 0.35 385.41 0.35ZM386.76-3.9L386.76-3.9Q388.11-3.9 389.01-5.3 389.91-6.7 390.36-8.88 390.81-11.05 390.81-13.3L390.81-13.3Q390.81-15.3 390.44-17.07 390.06-18.85 389.31-19.98 388.56-21.1 387.36-21.1L387.36-21.1Q386.06-21.1 385.14-19.7 384.21-18.3 383.76-16.15 383.31-14 383.31-11.7L383.31-11.7Q383.31-9.7 383.69-7.93 384.06-6.15 384.81-5.03 385.56-3.9 386.76-3.9ZM417.46 0.2L417.46 0.2Q415.66 0.2 414.21-1.3 412.76-2.8 412.76-6.25L412.76-6.25Q412.76-9.05 413.41-11.75 414.06-14.45 414.88-17.23 415.71-20 416.28-22.98 416.86-25.95 416.66-29.25L416.66-29.25Q415.31-29.05 414.01-28.55 412.71-28.05 411.46-27.1L411.46-27.1Q411.46-30.25 412.01-32.23 412.56-34.2 414.16-35.1 415.76-36 418.91-36L418.91-36Q420.61-36 422.71-35.75 424.81-35.5 427.03-35.25 429.26-35 431.26-35L431.26-35Q433.21-35 434.76-35.38 436.31-35.75 437.16-36.75L437.16-36.75Q438.16-36.1 438.68-34.98 439.21-33.85 439.21-32.55L439.21-32.55Q439.21-31.2 438.58-29.93 437.96-28.65 436.66-27.83 435.36-27 433.26-27L433.26-27Q431.06-27 428.46-27.7 425.86-28.4 423.11-28.9L423.11-28.9Q423.36-27.8 423.48-26.7 423.61-25.6 423.61-24.45L423.61-24.45Q423.61-23.2 423.51-21.98 423.41-20.75 423.21-19.45L423.21-19.45Q424.26-20 425.76-20.45 427.26-20.9 428.83-21.2 430.41-21.5 431.66-21.5L431.66-21.5Q432.46-21.5 433.06-21.35L433.06-21.35Q433.56-20.3 433.56-18.8L433.56-18.8Q433.56-16.4 432.36-13.9L432.36-13.9 432.01-13.75Q430.16-14.75 427.73-15.3 425.31-15.85 422.66-16.05L422.66-16.05Q422.16-13.2 421.71-10.25 421.26-7.3 421.26-4.2L421.26-4.2Q421.26-3.55 421.28-2.85 421.31-2.15 421.36-1.45L421.36-1.45Q419.71 0.2 417.46 0.2ZM444.95 0.2L444.95 0.2Q443.6 0.2 442.33-0.48 441.05-1.15 440.25-2.65 439.45-4.15 439.45-6.5L439.45-6.5Q439.45-8.6 440.03-11.43 440.6-14.25 441.33-17.3 442.05-20.35 442.6-23.25 443.15-26.15 443.1-28.4L443.1-28.4Q443.1-30.55 442.6-31.45L442.6-31.45 442.55-31.6Q443.1-33.2 444.5-34.1 445.9-35 447.45-35L447.45-35Q449.2-35 450.58-33.68 451.95-32.35 451.95-29.25L451.95-29.25Q451.95-27.6 451.55-25.33 451.15-23.05 450.6-20.48 450.05-17.9 449.48-15.4 448.9-12.9 448.5-10.8 448.1-8.7 448.1-7.35L448.1-7.35Q448.1-5.95 448.5-5.43 448.9-4.9 449.4-4.9L449.4-4.9Q449.95-4.9 450.45-5.33 450.95-5.75 451.1-6.1L451.1-6.1 451.5-6Q451.45-4.2 450.48-2.8 449.5-1.4 448.03-0.6 446.55 0.2 444.95 0.2ZM472.75 0.25L472.75 0.25Q471 0.25 469.7-0.9 468.4-2.05 468.4-4.65L468.4-4.65Q468.4-4.9 468.4-5.15 468.4-5.4 468.45-5.65L468.45-5.65Q466.95-2.65 465.08-1.23 463.2 0.2 461.3 0.2L461.3 0.2Q459.55 0.2 458-1.03 456.45-2.25 455.5-4.65 454.55-7.05 454.55-10.45L454.55-10.45Q454.55-13.95 455.53-16.7 456.5-19.45 458.1-21.35 459.7-23.25 461.6-24.23 463.5-25.2 465.3-25.2L465.3-25.2Q467.3-25.2 468.9-23.98 470.5-22.75 471.1-20.1L471.1-20.1Q471.25-20.95 471.33-21.65 471.4-22.35 471.4-22.6L471.4-22.6Q471.45-23.95 472.78-24.6 474.1-25.25 475.7-25.25L475.7-25.25Q477.1-25.25 478.35-24.7 479.6-24.15 480.05-22.85L480.05-22.85 480.15-22.55Q479.55-21.2 478.95-19.3 478.35-17.4 477.85-15.33 477.35-13.25 477.05-11.28 476.75-9.3 476.75-7.8L476.75-7.8Q476.75-6.15 477.1-5.53 477.45-4.9 477.95-4.9L477.95-4.9Q478.8-4.9 479.5-6.1L479.5-6.1 479.9-5.9Q479.9-4.2 478.8-2.8 477.7-1.4 476.05-0.58 474.4 0.25 472.75 0.25ZM464.6-6.1L464.6-6.1Q465.9-6.1 467.48-8.43 469.05-10.75 470.2-15.1L470.2-15.1Q470.3-15.55 470.4-15.98 470.5-16.4 470.55-16.8L470.55-16.8Q469.75-18.65 468.88-19.43 468-20.2 467.15-20.2L467.15-20.2Q465.9-20.2 464.83-18.88 463.75-17.55 463.08-15.55 462.4-13.55 462.4-11.55L462.4-11.55Q462.4-8.8 463.03-7.45 463.65-6.1 464.6-6.1ZM490.2 0.2L490.2 0.2Q487.3 0.2 485.6-1.33 483.9-2.85 483.9-6.05L483.9-6.05Q483.9-7.9 484.37-10 484.85-12.1 485.3-13.75L485.3-13.75Q485.75-15.35 486.02-16.55 486.3-17.75 486.3-18.4L486.3-18.4Q486.3-19.2 485.95-19.55 485.6-19.9 485.1-19.9L485.1-19.9Q483.9-19.9 483.1-18.75L483.1-18.75 482.9-18.95Q482.95-20.65 484-22.08 485.05-23.5 486.7-24.35 488.35-25.2 490.05-25.2L490.05-25.2Q491.95-25.2 493.3-24.08 494.65-22.95 494.55-20.55L494.55-20.55Q494.5-19.5 494.17-17.9 493.85-16.3 493.3-14.1L493.3-14.1Q492.95-12.7 492.57-10.93 492.2-9.15 492.2-7.7L492.2-7.7Q492.2-6.6 492.55-5.95 492.9-5.3 493.7-5.3L493.7-5.3Q494.75-5.3 496.02-6.48 497.3-7.65 498.25-10.33 499.2-13 499.35-17.45L499.35-17.45Q499.5-20.85 498.9-22.4L498.9-22.4 498.9-22.65Q499.35-23.35 500.27-24 501.2-24.65 502.35-25.08 503.5-25.5 504.5-25.5L504.5-25.5Q506.1-25.5 507.22-23.95 508.35-22.4 508.2-18.55L508.2-18.55Q508.1-14.85 506.87-11.85 505.65-8.85 503.7-6.6 501.75-4.35 499.42-2.85 497.1-1.35 494.7-0.58 492.3 0.2 490.2 0.2ZM521.4 0.35L521.4 0.35Q517.65 0.35 515.2-1.15 512.75-2.65 511.57-5.13 510.4-7.6 510.4-10.4L510.4-10.4Q510.4-13.05 511.37-15.7 512.35-18.35 514.22-20.53 516.1-22.7 518.8-24.03 521.5-25.35 525-25.35L525-25.35Q528.75-25.35 531.17-23.83 533.6-22.3 534.77-19.8 535.95-17.3 535.95-14.45L535.95-14.45Q535.95-11.85 535-9.22 534.05-6.6 532.17-4.42 530.3-2.25 527.6-0.95 524.9 0.35 521.4 0.35ZM522.75-3.9L522.75-3.9Q524.1-3.9 525-5.3 525.9-6.7 526.35-8.88 526.8-11.05 526.8-13.3L526.8-13.3Q526.8-15.3 526.42-17.07 526.05-18.85 525.3-19.98 524.55-21.1 523.35-21.1L523.35-21.1Q522.05-21.1 521.12-19.7 520.2-18.3 519.75-16.15 519.3-14 519.3-11.7L519.3-11.7Q519.3-9.7 519.67-7.93 520.05-6.15 520.8-5.03 521.55-3.9 522.75-3.9ZM544.69 0.2L544.69 0.2Q542.89 0.2 541.49-1.28 540.09-2.75 540.09-5.45L540.09-5.45Q540.09-6.75 540.39-8.4 540.69-10.05 541.09-11.78 541.49-13.5 541.79-15.03 542.09-16.55 542.09-17.55L542.09-17.55Q542.09-18.6 541.72-19.23 541.34-19.85 540.74-19.85L540.74-19.85Q539.79-19.85 538.79-18.55L538.79-18.55 538.49-18.75Q538.44-19.55 538.84-20.65 539.24-21.75 540.09-22.78 540.94-23.8 542.27-24.5 543.59-25.2 545.39-25.2L545.39-25.2Q548.04-25.2 549.24-23.68 550.44-22.15 550.44-20L550.44-20Q550.44-19.65 550.42-19.28 550.39-18.9 550.34-18.55L550.34-18.55Q552.14-21.8 554.12-23.53 556.09-25.25 557.79-25.25L557.79-25.25Q559.39-25.25 560.14-24 560.89-22.75 560.89-21L560.89-21Q560.89-19.4 560.27-17.75 559.64-16.1 558.42-15.03 557.19-13.95 555.44-14L555.44-14 555.24-14.1Q555.19-15.4 554.39-16.15 553.59-16.9 552.59-16.9L552.59-16.9Q551.24-16.9 550.07-15.55 548.89-14.2 548.89-11.65L548.89-11.65Q548.89-10.1 549.24-8.3 549.59-6.5 549.59-5.25L549.59-5.25Q549.59-3.75 548.89-2.5 548.19-1.25 547.09-0.53 545.99 0.2 544.69 0.2ZM569.14-11.4L569.14-11.4Q568.04-11.4 567.16-11.83 566.29-12.25 566.14-13.25L566.14-13.25Q566.24-15.45 566.56-18.28 566.89-21.1 567.34-24.05 567.79-27 568.24-29.7 568.69-32.4 569.04-34.43 569.39-36.45 569.54-37.35L569.54-37.35Q569.69-38.15 570.89-38.7 572.09-39.25 573.64-39.25L573.64-39.25Q575.34-39.25 576.96-38.4 578.59-37.55 579.24-35.4L579.24-35.4Q578.54-34.3 577.49-31.9 576.44-29.5 575.39-26.33 574.34-23.15 573.59-19.58 572.84-16 572.69-12.45L572.69-12.45Q572.14-12 571.14-11.7 570.14-11.4 569.14-11.4ZM568.39 0.3L568.39 0.3Q566.29 0.3 564.94-1 563.59-2.3 563.59-4.25L563.59-4.25Q563.59-6.35 565.16-7.88 566.74-9.4 568.99-9.4L568.99-9.4Q571.09-9.4 572.46-8.08 573.84-6.75 573.84-4.8L573.84-4.8Q573.84-2.7 572.24-1.2 570.64 0.3 568.39 0.3Z" opacity="1" transform="matrix(1,0,0,1,0,0)" fill="black" class="slogan-text-1" id="SvgjsPath4113" stroke-width="5" stroke="black" stroke-linejoin="round"></path></svg></g></svg></g></svg></g></svg></g><g></g></svg></g></svg></g></svg></g></mask><g transform="matrix(1,0,0,1,39.55199999999999,81.01812317959482)"><svg viewBox="0 0 316.416 85.16375364081034" height="85.16375364081034" width="316.416"><g><svg viewBox="0 0 316.416 85.16375364081034" height="85.16375364081034" width="316.416"><g><svg viewBox="0 0 316.416 85.16375364081034" height="85.16375364081034" width="316.416"><g><svg viewBox="0 0 316.416 85.16375364081034" height="85.16375364081034" width="316.416"><g id="textblocktransform"><svg viewBox="0 0 316.416 85.16375364081034" height="85.16375364081034" width="316.416" id="textblock"><g><svg viewBox="0 0 316.416 50.75405811700892" height="50.75405811700892" width="316.416"><g transform="matrix(1,0,0,1,0,0)"><svg width="316.416" viewBox="3.5 -38.7 259.08 42.400000000000006" height="50.75405811700892" data-palette-color="#ca0839"><path d="M17.5 0L6.5 0 6.5-35 17.5-35Q23.3-35 27.6-32.8 31.9-30.6 34.3-26.68 36.7-22.75 36.7-17.5L36.7-17.5Q36.7-12.25 34.3-8.33 31.9-4.4 27.6-2.2 23.3 0 17.5 0L17.5 0ZM17.5-33.8L17.5-33.8 9.9-33.8 9.9-1.2 17.5-1.2Q24.75-1.2 28.83-5.5 32.9-9.8 32.9-17.5L32.9-17.5Q32.9-25.2 28.83-29.5 24.75-33.8 17.5-33.8ZM50.6 0L47.2 0 47.2-35 50.6-35 50.6 0ZM60.55-1.1L60.55-1.1 60.85-4.1 61.15-4.1Q63.1-2.4 65.55-1.45 68-0.5 70.4-0.5L70.4-0.5Q73.8-0.5 75.9-2.38 78-4.25 78-7.4L78-7.4Q78-9.15 77.22-10.65 76.45-12.15 74.67-13.7 72.9-15.25 69.8-17.05L69.8-17.05Q67.65-18.3 65.7-19.68 63.75-21.05 62.5-22.88 61.25-24.7 61.25-27.25L61.25-27.25Q61.25-31.05 64-33.38 66.75-35.7 71.25-35.7L71.25-35.7Q73.25-35.7 75.55-35.27 77.85-34.85 79.1-34.2L79.1-34.2 78.85-31.4 78.55-31.4Q75.7-34.5 71.25-34.5L71.25-34.5Q68.05-34.5 66.1-32.88 64.15-31.25 64.15-28.5L64.15-28.5Q64.15-26.45 65.22-24.98 66.3-23.5 68-22.33 69.7-21.15 71.65-20.05L71.65-20.05Q73.9-18.75 76.02-17.3 78.15-15.85 79.52-13.83 80.9-11.8 80.9-8.75L80.9-8.75Q80.9-5.95 79.6-3.83 78.3-1.7 75.92-0.5 73.55 0.7 70.4 0.7L70.4 0.7Q68.4 0.7 65.7 0.2 63-0.3 60.55-1.1ZM94.14 0L90.74 0 90.74-35 94.14-35 94.14-18.8 115.14-18.8 115.14-35 118.54-35 118.54 0 115.14 0 115.14-17.6 94.14-17.6 94.14 0ZM142.54 0L131.54 0 131.54-35 142.54-35Q148.34-35 152.64-32.8 156.94-30.6 159.34-26.68 161.74-22.75 161.74-17.5L161.74-17.5Q161.74-12.25 159.34-8.33 156.94-4.4 152.64-2.2 148.34 0 142.54 0L142.54 0ZM142.54-33.8L142.54-33.8 134.94-33.8 134.94-1.2 142.54-1.2Q149.79-1.2 153.87-5.5 157.94-9.8 157.94-17.5L157.94-17.5Q157.94-25.2 153.87-29.5 149.79-33.8 142.54-33.8ZM170.19 0L166.54 0 179.99-35 183.09-35 196.54 0 192.89 0 186.69-16.4 175.34-16.4 170.19 0ZM180.64-32.4L180.34-32.4 175.69-17.6 186.24-17.6 180.64-32.4ZM201.59-1.1L201.59-1.1 201.89-4.1 202.19-4.1Q204.14-2.4 206.59-1.45 209.04-0.5 211.44-0.5L211.44-0.5Q214.84-0.5 216.94-2.38 219.04-4.25 219.04-7.4L219.04-7.4Q219.04-9.15 218.26-10.65 217.49-12.15 215.71-13.7 213.94-15.25 210.84-17.05L210.84-17.05Q208.69-18.3 206.74-19.68 204.79-21.05 203.54-22.88 202.29-24.7 202.29-27.25L202.29-27.25Q202.29-31.05 205.04-33.38 207.79-35.7 212.29-35.7L212.29-35.7Q214.29-35.7 216.59-35.27 218.89-34.85 220.14-34.2L220.14-34.2 219.89-31.4 219.59-31.4Q216.74-34.5 212.29-34.5L212.29-34.5Q209.09-34.5 207.14-32.88 205.19-31.25 205.19-28.5L205.19-28.5Q205.19-26.45 206.26-24.98 207.34-23.5 209.04-22.33 210.74-21.15 212.69-20.05L212.69-20.05Q214.94-18.75 217.06-17.3 219.19-15.85 220.56-13.83 221.94-11.8 221.94-8.75L221.94-8.75Q221.94-5.95 220.64-3.83 219.34-1.7 216.96-0.5 214.59 0.7 211.44 0.7L211.44 0.7Q209.44 0.7 206.74 0.2 204.04-0.3 201.59-1.1ZM235.18 0L231.78 0 231.78-35 235.18-35 235.18-18.8 256.18-18.8 256.18-35 259.58-35 259.58 0 256.18 0 256.18-17.6 235.18-17.6 235.18 0Z" opacity="1" transform="matrix(1,0,0,1,0,0)" fill="#ffffff" class="wordmark-text-0" data-fill-palette-color="primary" id="text-0"></path></svg></g></svg></g><g transform="matrix(1,0,0,1,2.5,61.28879403185743)"><svg viewBox="0 0 311.416 23.874959608952917" height="23.874959608952917" width="311.416"><g transform="matrix(1,0,0,1,0,0)"><svg width="311.416" viewBox="-1.75 -42.25 583.99 45.7" height="23.874959608952917" data-palette-color="#902641"><path d="M14.7 0.2L14.7 0.2Q13.3 0.2 12.15-0.3 11-0.8 10.45-1.55L10.45-1.55Q11.25-4.2 11.68-7.3 12.1-10.4 12.1-13.45L12.1-13.45Q12.1-17.25 11.4-20.58 10.7-23.9 9.28-25.95 7.85-28 5.6-28L5.6-28Q3.9-28 1.75-26.6L1.75-26.6 1.25-26.8Q1.5-31.1 3.4-33.55 5.3-36 8.2-36L8.2-36Q10.3-36 12.03-34.8 13.75-33.6 15.08-31.6 16.4-29.6 17.38-27.1 18.35-24.6 18.95-22L18.95-22Q20.05-27.15 21.8-30.28 23.55-33.4 25.55-34.83 27.55-36.25 29.4-36.25L29.4-36.25Q31.75-36.25 33.43-34.35 35.1-32.45 35.1-29.45L35.1-29.45Q35.1-27.8 34.5-25.9L34.5-25.9Q33.05-26.7 31.4-26.7L31.4-26.7Q29.25-26.7 27.1-25.43 24.95-24.15 23.18-21.83 21.4-19.5 20.4-16.35L20.4-16.35Q20.55-13.75 20.55-11.85L20.55-11.85Q20.55-9.25 20.25-6.98 19.95-4.7 19.15-1.65L19.15-1.65Q18.2-0.7 17.03-0.25 15.85 0.2 14.7 0.2ZM46.55 0.35L46.55 0.35Q42.8 0.35 40.35-1.15 37.9-2.65 36.72-5.13 35.55-7.6 35.55-10.4L35.55-10.4Q35.55-13.05 36.52-15.7 37.5-18.35 39.37-20.53 41.25-22.7 43.95-24.03 46.65-25.35 50.15-25.35L50.15-25.35Q53.9-25.35 56.32-23.83 58.75-22.3 59.92-19.8 61.1-17.3 61.1-14.45L61.1-14.45Q61.1-11.85 60.15-9.22 59.2-6.6 57.32-4.42 55.45-2.25 52.75-0.95 50.05 0.35 46.55 0.35ZM47.9-3.9L47.9-3.9Q49.25-3.9 50.15-5.3 51.05-6.7 51.5-8.88 51.95-11.05 51.95-13.3L51.95-13.3Q51.95-15.3 51.57-17.07 51.2-18.85 50.45-19.98 49.7-21.1 48.5-21.1L48.5-21.1Q47.2-21.1 46.27-19.7 45.35-18.3 44.9-16.15 44.45-14 44.45-11.7L44.45-11.7Q44.45-9.7 44.82-7.93 45.2-6.15 45.95-5.03 46.7-3.9 47.9-3.9ZM70.65 0.2L70.65 0.2Q68.4 0.2 66.87-1.65 65.34-3.5 65.34-6.6L65.34-6.6Q65.34-8.3 65.75-10.25 66.15-12.2 66.55-13.95L66.55-13.95Q66.9-15.25 67.12-16.38 67.34-17.5 67.34-18.2L67.34-18.2Q67.34-19.1 66.97-19.5 66.59-19.9 66.09-19.9L66.09-19.9Q65.59-19.9 65.09-19.58 64.59-19.25 64.3-18.6L64.3-18.6 63.9-18.75Q63.9-20.8 64.9-22.25 65.9-23.7 67.45-24.45 69-25.2 70.59-25.2L70.59-25.2Q71.9-25.2 73.09-24.68 74.3-24.15 75.07-23.05 75.84-21.95 75.84-20.3L75.84-20.3Q75.84-19.3 75.57-17.9 75.3-16.5 74.95-15L74.95-15Q74.59-13.45 74.27-11.88 73.95-10.3 73.95-9.1L73.95-9.1Q73.95-8 74.3-7.3 74.65-6.6 75.34-6.6L75.34-6.6Q76.65-6.6 78.27-9 79.9-11.4 80.9-15.45L80.9-15.45Q81.09-16.25 81.25-17.15 81.4-18.05 81.4-19L81.4-19Q81.4-19.75 81.3-20.53 81.2-21.3 81-22.1L81-22.1 81-22.45Q81.8-23.8 83.07-24.5 84.34-25.2 85.65-25.2L85.65-25.2Q87.4-25.2 88.8-24 90.2-22.8 90.2-20.5L90.2-20.5Q90.2-19.15 89.7-17.38 89.2-15.6 88.59-13.7L88.59-13.7Q88-11.85 87.5-10.05 87-8.25 87-6.85L87-6.85Q87-4.8 88.45-4.8L88.45-4.8Q88.84-4.8 89.42-5.03 90-5.25 90.5-5.95L90.5-5.95 90.84-5.85Q90.84-4.05 89.87-2.68 88.9-1.3 87.4-0.55 85.9 0.2 84.3 0.2L84.3 0.2Q82.25 0.2 80.62-1.3 79-2.8 79-6.2L79-6.2 79-6.3Q76.95-2.8 74.75-1.3 72.55 0.2 70.65 0.2ZM99.29 0.2L99.29 0.2Q97.49 0.2 96.09-1.28 94.69-2.75 94.69-5.45L94.69-5.45Q94.69-6.75 94.99-8.4 95.29-10.05 95.69-11.78 96.09-13.5 96.39-15.03 96.69-16.55 96.69-17.55L96.69-17.55Q96.69-18.6 96.32-19.23 95.94-19.85 95.34-19.85L95.34-19.85Q94.39-19.85 93.39-18.55L93.39-18.55 93.09-18.75Q93.04-19.55 93.44-20.65 93.84-21.75 94.69-22.78 95.54-23.8 96.87-24.5 98.19-25.2 99.99-25.2L99.99-25.2Q102.64-25.2 103.84-23.68 105.04-22.15 105.04-20L105.04-20Q105.04-19.65 105.02-19.28 104.99-18.9 104.94-18.55L104.94-18.55Q106.74-21.8 108.72-23.53 110.69-25.25 112.39-25.25L112.39-25.25Q113.99-25.25 114.74-24 115.49-22.75 115.49-21L115.49-21Q115.49-19.4 114.87-17.75 114.24-16.1 113.02-15.03 111.79-13.95 110.04-14L110.04-14 109.84-14.1Q109.79-15.4 108.99-16.15 108.19-16.9 107.19-16.9L107.19-16.9Q105.84-16.9 104.67-15.55 103.49-14.2 103.49-11.65L103.49-11.65Q103.49-10.1 103.84-8.3 104.19-6.5 104.19-5.25L104.19-5.25Q104.19-3.75 103.49-2.5 102.79-1.25 101.69-0.53 100.59 0.2 99.29 0.2ZM131.59 0.2L131.59 0.2Q129.79 0.2 128.34-1.3 126.89-2.8 126.89-6.25L126.89-6.25Q126.89-9.05 127.54-11.75 128.19-14.45 129.01-17.23 129.84-20 130.41-22.98 130.99-25.95 130.79-29.25L130.79-29.25Q129.44-29.05 128.14-28.55 126.84-28.05 125.59-27.1L125.59-27.1Q125.59-30.25 126.14-32.23 126.69-34.2 128.29-35.1 129.89-36 133.04-36L133.04-36Q134.74-36 136.84-35.75 138.94-35.5 141.16-35.25 143.39-35 145.39-35L145.39-35Q147.34-35 148.89-35.38 150.44-35.75 151.29-36.75L151.29-36.75Q152.29-36.1 152.81-34.98 153.34-33.85 153.34-32.55L153.34-32.55Q153.34-31.2 152.71-29.93 152.09-28.65 150.79-27.83 149.49-27 147.39-27L147.39-27Q145.19-27 142.59-27.7 139.99-28.4 137.24-28.9L137.24-28.9Q137.49-27.8 137.61-26.7 137.74-25.6 137.74-24.45L137.74-24.45Q137.74-23.2 137.64-21.98 137.54-20.75 137.34-19.45L137.34-19.45Q138.39-20 139.89-20.45 141.39-20.9 142.96-21.2 144.54-21.5 145.79-21.5L145.79-21.5Q146.59-21.5 147.19-21.35L147.19-21.35Q147.69-20.3 147.69-18.8L147.69-18.8Q147.69-16.4 146.49-13.9L146.49-13.9 146.14-13.75Q144.29-14.75 141.86-15.3 139.44-15.85 136.79-16.05L136.79-16.05Q136.29-13.2 135.84-10.25 135.39-7.3 135.39-4.2L135.39-4.2Q135.39-3.55 135.41-2.85 135.44-2.15 135.49-1.45L135.49-1.45Q133.84 0.2 131.59 0.2ZM171.59 0.25L171.59 0.25Q169.84 0.25 168.54-0.9 167.24-2.05 167.24-4.65L167.24-4.65Q167.24-4.9 167.24-5.15 167.24-5.4 167.29-5.65L167.29-5.65Q165.79-2.65 163.91-1.23 162.04 0.2 160.14 0.2L160.14 0.2Q158.39 0.2 156.84-1.03 155.29-2.25 154.34-4.65 153.39-7.05 153.39-10.45L153.39-10.45Q153.39-13.95 154.36-16.7 155.34-19.45 156.94-21.35 158.54-23.25 160.44-24.23 162.34-25.2 164.14-25.2L164.14-25.2Q166.14-25.2 167.74-23.98 169.34-22.75 169.94-20.1L169.94-20.1Q170.09-20.95 170.16-21.65 170.24-22.35 170.24-22.6L170.24-22.6Q170.29-23.95 171.61-24.6 172.94-25.25 174.54-25.25L174.54-25.25Q175.94-25.25 177.19-24.7 178.44-24.15 178.89-22.85L178.89-22.85 178.99-22.55Q178.39-21.2 177.79-19.3 177.19-17.4 176.69-15.33 176.19-13.25 175.89-11.28 175.59-9.3 175.59-7.8L175.59-7.8Q175.59-6.15 175.94-5.53 176.29-4.9 176.79-4.9L176.79-4.9Q177.64-4.9 178.34-6.1L178.34-6.1 178.74-5.9Q178.74-4.2 177.64-2.8 176.54-1.4 174.89-0.58 173.24 0.25 171.59 0.25ZM163.44-6.1L163.44-6.1Q164.74-6.1 166.31-8.43 167.89-10.75 169.04-15.1L169.04-15.1Q169.14-15.55 169.24-15.98 169.34-16.4 169.39-16.8L169.39-16.8Q168.59-18.65 167.71-19.43 166.84-20.2 165.99-20.2L165.99-20.2Q164.74-20.2 163.66-18.88 162.59-17.55 161.91-15.55 161.24-13.55 161.24-11.55L161.24-11.55Q161.24-8.8 161.86-7.45 162.49-6.1 163.44-6.1ZM190.08 0.45L190.08 0.45Q186.98 0.45 184.93-0.4 182.88-1.25 181.88-2.58 180.88-3.9 180.88-5.25L180.88-5.25Q180.88-7.15 182.58-8.63 184.28-10.1 187.18-10.1L187.18-10.1Q187.18-7.55 187.83-6.03 188.48-4.5 189.51-3.85 190.53-3.2 191.48-3.2L191.48-3.2Q192.63-3.2 193.41-3.88 194.18-4.55 194.18-5.55L194.18-5.55Q194.18-6.95 192.73-8 191.28-9.05 188.98-10.35L188.98-10.35Q187.83-11.05 186.48-11.98 185.13-12.9 184.18-14.23 183.23-15.55 183.23-17.4L183.23-17.4Q183.23-19.35 184.36-20.85 185.48-22.35 187.33-23.38 189.18-24.4 191.33-24.93 193.48-25.45 195.53-25.45L195.53-25.45Q199.38-25.45 201.33-23.9 203.28-22.35 203.28-20.6L203.28-20.6Q203.28-19.1 201.78-17.9 200.28-16.7 197.18-16.7L197.18-16.7Q197.23-19.25 196.13-20.43 195.03-21.6 193.78-21.6L193.78-21.6Q192.88-21.6 192.28-21.05 191.68-20.5 191.68-19.45L191.68-19.45Q191.68-18.25 192.46-17.38 193.23-16.5 194.41-15.83 195.58-15.15 196.83-14.55L196.83-14.55Q198.53-13.75 200.03-12.85 201.53-11.95 202.48-10.8 203.43-9.65 203.43-8L203.43-8Q203.43-5.75 201.61-3.83 199.78-1.9 196.73-0.73 193.68 0.45 190.08 0.45ZM213.43 0.2L213.43 0.2Q211.83 0.2 210.41-0.53 208.98-1.25 208.11-2.8 207.23-4.35 207.23-6.75L207.23-6.75Q207.23-8.05 207.48-10.15 207.73-12.25 208.16-14.75 208.58-17.25 209.03-19.75L209.03-19.75Q208.03-19.7 207.11-19.55 206.18-19.4 205.28-19.2L205.28-19.2 205.18-19.55Q206.18-20.75 207.28-21.6 208.38-22.45 209.58-23L209.58-23Q210.23-26.3 210.68-28.73 211.13-31.15 211.13-31.6L211.13-31.6Q211.13-32.45 212.46-33 213.78-33.55 215.43-33.55L215.43-33.55Q216.88-33.55 218.16-33 219.43-32.45 219.88-31.15L219.88-31.15Q219.58-30.85 219.03-28.93 218.48-27 217.88-24.25L217.88-24.25Q218.83-24.2 219.83-24.15 220.83-24.1 221.88-24L221.88-24Q221.98-23.7 222.03-23.35 222.08-23 222.08-22.6L222.08-22.6Q222.08-21.85 221.86-20.98 221.63-20.1 221.33-19.4L221.33-19.4Q220.13-19.5 219.08-19.63 218.03-19.75 217.03-19.8L217.03-19.8Q216.63-17.65 216.31-15.5 215.98-13.35 215.81-11.6 215.63-9.85 215.63-8.85L215.63-8.85Q215.63-6.75 216.41-6.05 217.18-5.35 218.28-5.35L218.28-5.35Q219.28-5.35 220.08-5.75 220.88-6.15 221.23-6.7L221.23-6.7 221.73-6.55Q221.43-4.5 220.13-2.98 218.83-1.45 217.03-0.63 215.23 0.2 213.43 0.2ZM255.38 0.35L255.38 0.35Q253.58 0.35 251.3-0.3 249.03-0.95 246.55-1.73 244.08-2.5 241.63-2.85L241.63-2.85Q239.93-1.25 238.45-0.58 236.98 0.1 235.83 0.1L235.83 0.1Q234.38 0.1 233.38-0.75 232.38-1.6 231.88-2.93 231.38-4.25 231.38-5.65L231.38-5.65Q231.38-7.1 231.9-8.4 232.43-9.7 233.53-10.53 234.63-11.35 236.33-11.35L236.33-11.35Q236.68-11.35 237.08-11.3 237.48-11.25 237.93-11.15L237.93-11.15Q238.88-14.05 239.6-17.57 240.33-21.1 240.75-24.5 241.18-27.9 241.18-30.4L241.18-30.4Q241.18-31.4 241.08-31.83 240.98-32.25 240.73-32.7L240.73-32.7 240.68-32.85Q241.28-34.45 242.68-35.35 244.08-36.25 245.63-36.25L245.63-36.25Q247.33-36.25 248.43-35.02 249.53-33.8 249.53-30.95L249.53-30.95Q249.53-29.15 249.1-26.48 248.68-23.8 247.93-20.73 247.18-17.65 246.28-14.65 245.38-11.65 244.48-9.3L244.48-9.3Q246.68-8.8 248.9-8.15 251.13-7.5 253.28-7.5L253.28-7.5Q254.93-7.5 256.45-8.1 257.98-8.7 259.33-10.3L259.33-10.3Q260.33-9.65 260.8-8.45 261.28-7.25 261.28-5.9L261.28-5.9Q261.28-4.4 260.65-2.98 260.03-1.55 258.73-0.6 257.43 0.35 255.38 0.35ZM282.37 0.25L282.37 0.25Q280.62 0.25 279.32-0.9 278.02-2.05 278.02-4.65L278.02-4.65Q278.02-4.9 278.02-5.15 278.02-5.4 278.07-5.65L278.07-5.65Q276.57-2.65 274.7-1.23 272.82 0.2 270.92 0.2L270.92 0.2Q269.17 0.2 267.62-1.03 266.07-2.25 265.12-4.65 264.17-7.05 264.17-10.45L264.17-10.45Q264.17-13.95 265.15-16.7 266.12-19.45 267.72-21.35 269.32-23.25 271.22-24.23 273.12-25.2 274.92-25.2L274.92-25.2Q276.92-25.2 278.52-23.98 280.12-22.75 280.72-20.1L280.72-20.1Q280.87-20.95 280.95-21.65 281.02-22.35 281.02-22.6L281.02-22.6Q281.07-23.95 282.4-24.6 283.72-25.25 285.32-25.25L285.32-25.25Q286.72-25.25 287.97-24.7 289.22-24.15 289.67-22.85L289.67-22.85 289.77-22.55Q289.17-21.2 288.57-19.3 287.97-17.4 287.47-15.33 286.97-13.25 286.67-11.28 286.37-9.3 286.37-7.8L286.37-7.8Q286.37-6.15 286.72-5.53 287.07-4.9 287.57-4.9L287.57-4.9Q288.42-4.9 289.12-6.1L289.12-6.1 289.52-5.9Q289.52-4.2 288.42-2.8 287.32-1.4 285.67-0.58 284.02 0.25 282.37 0.25ZM274.22-6.1L274.22-6.1Q275.52-6.1 277.1-8.43 278.67-10.75 279.82-15.1L279.82-15.1Q279.92-15.55 280.02-15.98 280.12-16.4 280.17-16.8L280.17-16.8Q279.37-18.65 278.5-19.43 277.62-20.2 276.77-20.2L276.77-20.2Q275.52-20.2 274.45-18.88 273.37-17.55 272.7-15.55 272.02-13.55 272.02-11.55L272.02-11.55Q272.02-8.8 272.65-7.45 273.27-6.1 274.22-6.1ZM298.22 0.15L298.22 0.15Q296.37 0.15 294.87-1.33 293.37-2.8 293.37-5.45L293.37-5.45Q293.37-6.75 293.72-8.4 294.07-10.05 294.5-11.75 294.92-13.45 295.27-14.95 295.62-16.45 295.62-17.4L295.62-17.4Q295.62-18.4 295.22-18.98 294.82-19.55 294.17-19.55L294.17-19.55Q293.32-19.55 292.32-18.55L292.32-18.55 292.02-18.75Q291.97-19.55 292.37-20.65 292.77-21.75 293.6-22.78 294.42-23.8 295.72-24.5 297.02-25.2 298.82-25.2L298.82-25.2Q301.47-25.2 302.75-23.68 304.02-22.15 304.02-19.95L304.02-19.95Q304.02-19.15 303.87-18.4L303.87-18.4Q304.92-19.95 306.47-21.53 308.02-23.1 309.9-24.15 311.77-25.2 313.77-25.2L313.77-25.2Q316.12-25.2 316.97-23.7 317.82-22.2 317.82-19.95L317.82-19.95Q317.82-17.85 317.37-15.45 316.92-13.05 316.47-10.83 316.02-8.6 316.02-7.1L316.02-7.1Q316.02-5.1 317.17-5.1L317.17-5.1Q317.77-5.1 318.22-5.48 318.67-5.85 318.82-6.2L318.82-6.2 319.17-6.05Q319.17-4.2 318.15-2.8 317.12-1.4 315.57-0.63 314.02 0.15 312.42 0.15L312.42 0.15Q310.47 0.15 308.97-1.2 307.47-2.55 307.47-5.6L307.47-5.6Q307.47-7.4 307.95-9.5 308.42-11.6 308.87-13.55 309.32-15.5 309.32-16.75L309.32-16.75Q309.32-17.5 309.05-17.93 308.77-18.35 308.07-18.35L308.07-18.35Q306.92-18.35 305.55-17.3 304.17-16.25 303.2-14.5 302.22-12.75 302.22-10.65L302.22-10.65Q302.22-9.3 302.55-8.05 302.87-6.8 302.87-5.35L302.87-5.35Q302.87-2.65 301.47-1.25 300.07 0.15 298.22 0.15ZM332.57 0.35L332.57 0.35Q328.92 0.35 326.52-1.13 324.12-2.6 322.92-5.03 321.72-7.45 321.72-10.25L321.72-10.25Q321.72-12.9 322.74-15.58 323.77-18.25 325.74-20.45 327.72-22.65 330.54-24 333.37-25.35 336.92-25.35L336.92-25.35Q341.32-25.35 343.34-23.38 345.37-21.4 345.37-18.6L345.37-18.6Q345.37-16.2 344.09-14.18 342.82-12.15 340.72-10.93 338.62-9.7 336.12-9.7L336.12-9.7Q334.82-9.7 333.47-10.1 332.12-10.5 330.82-11.35L330.82-11.35Q331.07-8.25 332.62-6.85 334.17-5.45 336.32-5.45L336.32-5.45Q337.82-5.45 339.32-6.03 340.82-6.6 342.09-7.53 343.37-8.45 344.07-9.5L344.07-9.5 344.42-9.25Q344.42-6.65 343.34-4.83 342.27-3 340.52-1.85 338.77-0.7 336.69-0.18 334.62 0.35 332.57 0.35ZM333.72-13.15L333.72-13.15Q335.32-13.15 336.32-14.08 337.32-15 337.82-16.25 338.32-17.5 338.32-18.45L338.32-18.45Q338.32-19.6 337.67-20.38 337.02-21.15 335.87-21.15L335.87-21.15Q334.97-21.15 333.89-20.5 332.82-19.85 331.97-18.28 331.12-16.7 330.87-13.9L330.87-13.9Q332.47-13.15 333.72-13.15ZM363.96 0.2L363.96 0.2Q362.36 0.2 360.94-0.53 359.51-1.25 358.64-2.8 357.76-4.35 357.76-6.75L357.76-6.75Q357.76-8.05 358.01-10.15 358.26-12.25 358.69-14.75 359.11-17.25 359.56-19.75L359.56-19.75Q358.56-19.7 357.64-19.55 356.71-19.4 355.81-19.2L355.81-19.2 355.71-19.55Q356.71-20.75 357.81-21.6 358.91-22.45 360.11-23L360.11-23Q360.76-26.3 361.21-28.73 361.66-31.15 361.66-31.6L361.66-31.6Q361.66-32.45 362.99-33 364.31-33.55 365.96-33.55L365.96-33.55Q367.41-33.55 368.69-33 369.96-32.45 370.41-31.15L370.41-31.15Q370.11-30.85 369.56-28.93 369.01-27 368.41-24.25L368.41-24.25Q369.36-24.2 370.36-24.15 371.36-24.1 372.41-24L372.41-24Q372.51-23.7 372.56-23.35 372.61-23 372.61-22.6L372.61-22.6Q372.61-21.85 372.39-20.98 372.16-20.1 371.86-19.4L371.86-19.4Q370.66-19.5 369.61-19.63 368.56-19.75 367.56-19.8L367.56-19.8Q367.16-17.65 366.84-15.5 366.51-13.35 366.34-11.6 366.16-9.85 366.16-8.85L366.16-8.85Q366.16-6.75 366.94-6.05 367.71-5.35 368.81-5.35L368.81-5.35Q369.81-5.35 370.61-5.75 371.41-6.15 371.76-6.7L371.76-6.7 372.26-6.55Q371.96-4.5 370.66-2.98 369.36-1.45 367.56-0.63 365.76 0.2 363.96 0.2ZM385.41 0.35L385.41 0.35Q381.66 0.35 379.21-1.15 376.76-2.65 375.59-5.13 374.41-7.6 374.41-10.4L374.41-10.4Q374.41-13.05 375.39-15.7 376.36-18.35 378.24-20.53 380.11-22.7 382.81-24.03 385.51-25.35 389.01-25.35L389.01-25.35Q392.76-25.35 395.19-23.83 397.61-22.3 398.79-19.8 399.96-17.3 399.96-14.45L399.96-14.45Q399.96-11.85 399.01-9.22 398.06-6.6 396.19-4.42 394.31-2.25 391.61-0.95 388.91 0.35 385.41 0.35ZM386.76-3.9L386.76-3.9Q388.11-3.9 389.01-5.3 389.91-6.7 390.36-8.88 390.81-11.05 390.81-13.3L390.81-13.3Q390.81-15.3 390.44-17.07 390.06-18.85 389.31-19.98 388.56-21.1 387.36-21.1L387.36-21.1Q386.06-21.1 385.14-19.7 384.21-18.3 383.76-16.15 383.31-14 383.31-11.7L383.31-11.7Q383.31-9.7 383.69-7.93 384.06-6.15 384.81-5.03 385.56-3.9 386.76-3.9ZM417.46 0.2L417.46 0.2Q415.66 0.2 414.21-1.3 412.76-2.8 412.76-6.25L412.76-6.25Q412.76-9.05 413.41-11.75 414.06-14.45 414.88-17.23 415.71-20 416.28-22.98 416.86-25.95 416.66-29.25L416.66-29.25Q415.31-29.05 414.01-28.55 412.71-28.05 411.46-27.1L411.46-27.1Q411.46-30.25 412.01-32.23 412.56-34.2 414.16-35.1 415.76-36 418.91-36L418.91-36Q420.61-36 422.71-35.75 424.81-35.5 427.03-35.25 429.26-35 431.26-35L431.26-35Q433.21-35 434.76-35.38 436.31-35.75 437.16-36.75L437.16-36.75Q438.16-36.1 438.68-34.98 439.21-33.85 439.21-32.55L439.21-32.55Q439.21-31.2 438.58-29.93 437.96-28.65 436.66-27.83 435.36-27 433.26-27L433.26-27Q431.06-27 428.46-27.7 425.86-28.4 423.11-28.9L423.11-28.9Q423.36-27.8 423.48-26.7 423.61-25.6 423.61-24.45L423.61-24.45Q423.61-23.2 423.51-21.98 423.41-20.75 423.21-19.45L423.21-19.45Q424.26-20 425.76-20.45 427.26-20.9 428.83-21.2 430.41-21.5 431.66-21.5L431.66-21.5Q432.46-21.5 433.06-21.35L433.06-21.35Q433.56-20.3 433.56-18.8L433.56-18.8Q433.56-16.4 432.36-13.9L432.36-13.9 432.01-13.75Q430.16-14.75 427.73-15.3 425.31-15.85 422.66-16.05L422.66-16.05Q422.16-13.2 421.71-10.25 421.26-7.3 421.26-4.2L421.26-4.2Q421.26-3.55 421.28-2.85 421.31-2.15 421.36-1.45L421.36-1.45Q419.71 0.2 417.46 0.2ZM444.95 0.2L444.95 0.2Q443.6 0.2 442.33-0.48 441.05-1.15 440.25-2.65 439.45-4.15 439.45-6.5L439.45-6.5Q439.45-8.6 440.03-11.43 440.6-14.25 441.33-17.3 442.05-20.35 442.6-23.25 443.15-26.15 443.1-28.4L443.1-28.4Q443.1-30.55 442.6-31.45L442.6-31.45 442.55-31.6Q443.1-33.2 444.5-34.1 445.9-35 447.45-35L447.45-35Q449.2-35 450.58-33.68 451.95-32.35 451.95-29.25L451.95-29.25Q451.95-27.6 451.55-25.33 451.15-23.05 450.6-20.48 450.05-17.9 449.48-15.4 448.9-12.9 448.5-10.8 448.1-8.7 448.1-7.35L448.1-7.35Q448.1-5.95 448.5-5.43 448.9-4.9 449.4-4.9L449.4-4.9Q449.95-4.9 450.45-5.33 450.95-5.75 451.1-6.1L451.1-6.1 451.5-6Q451.45-4.2 450.48-2.8 449.5-1.4 448.03-0.6 446.55 0.2 444.95 0.2ZM472.75 0.25L472.75 0.25Q471 0.25 469.7-0.9 468.4-2.05 468.4-4.65L468.4-4.65Q468.4-4.9 468.4-5.15 468.4-5.4 468.45-5.65L468.45-5.65Q466.95-2.65 465.08-1.23 463.2 0.2 461.3 0.2L461.3 0.2Q459.55 0.2 458-1.03 456.45-2.25 455.5-4.65 454.55-7.05 454.55-10.45L454.55-10.45Q454.55-13.95 455.53-16.7 456.5-19.45 458.1-21.35 459.7-23.25 461.6-24.23 463.5-25.2 465.3-25.2L465.3-25.2Q467.3-25.2 468.9-23.98 470.5-22.75 471.1-20.1L471.1-20.1Q471.25-20.95 471.33-21.65 471.4-22.35 471.4-22.6L471.4-22.6Q471.45-23.95 472.78-24.6 474.1-25.25 475.7-25.25L475.7-25.25Q477.1-25.25 478.35-24.7 479.6-24.15 480.05-22.85L480.05-22.85 480.15-22.55Q479.55-21.2 478.95-19.3 478.35-17.4 477.85-15.33 477.35-13.25 477.05-11.28 476.75-9.3 476.75-7.8L476.75-7.8Q476.75-6.15 477.1-5.53 477.45-4.9 477.95-4.9L477.95-4.9Q478.8-4.9 479.5-6.1L479.5-6.1 479.9-5.9Q479.9-4.2 478.8-2.8 477.7-1.4 476.05-0.58 474.4 0.25 472.75 0.25ZM464.6-6.1L464.6-6.1Q465.9-6.1 467.48-8.43 469.05-10.75 470.2-15.1L470.2-15.1Q470.3-15.55 470.4-15.98 470.5-16.4 470.55-16.8L470.55-16.8Q469.75-18.65 468.88-19.43 468-20.2 467.15-20.2L467.15-20.2Q465.9-20.2 464.83-18.88 463.75-17.55 463.08-15.55 462.4-13.55 462.4-11.55L462.4-11.55Q462.4-8.8 463.03-7.45 463.65-6.1 464.6-6.1ZM490.2 0.2L490.2 0.2Q487.3 0.2 485.6-1.33 483.9-2.85 483.9-6.05L483.9-6.05Q483.9-7.9 484.37-10 484.85-12.1 485.3-13.75L485.3-13.75Q485.75-15.35 486.02-16.55 486.3-17.75 486.3-18.4L486.3-18.4Q486.3-19.2 485.95-19.55 485.6-19.9 485.1-19.9L485.1-19.9Q483.9-19.9 483.1-18.75L483.1-18.75 482.9-18.95Q482.95-20.65 484-22.08 485.05-23.5 486.7-24.35 488.35-25.2 490.05-25.2L490.05-25.2Q491.95-25.2 493.3-24.08 494.65-22.95 494.55-20.55L494.55-20.55Q494.5-19.5 494.17-17.9 493.85-16.3 493.3-14.1L493.3-14.1Q492.95-12.7 492.57-10.93 492.2-9.15 492.2-7.7L492.2-7.7Q492.2-6.6 492.55-5.95 492.9-5.3 493.7-5.3L493.7-5.3Q494.75-5.3 496.02-6.48 497.3-7.65 498.25-10.33 499.2-13 499.35-17.45L499.35-17.45Q499.5-20.85 498.9-22.4L498.9-22.4 498.9-22.65Q499.35-23.35 500.27-24 501.2-24.65 502.35-25.08 503.5-25.5 504.5-25.5L504.5-25.5Q506.1-25.5 507.22-23.95 508.35-22.4 508.2-18.55L508.2-18.55Q508.1-14.85 506.87-11.85 505.65-8.85 503.7-6.6 501.75-4.35 499.42-2.85 497.1-1.35 494.7-0.58 492.3 0.2 490.2 0.2ZM521.4 0.35L521.4 0.35Q517.65 0.35 515.2-1.15 512.75-2.65 511.57-5.13 510.4-7.6 510.4-10.4L510.4-10.4Q510.4-13.05 511.37-15.7 512.35-18.35 514.22-20.53 516.1-22.7 518.8-24.03 521.5-25.35 525-25.35L525-25.35Q528.75-25.35 531.17-23.83 533.6-22.3 534.77-19.8 535.95-17.3 535.95-14.45L535.95-14.45Q535.95-11.85 535-9.22 534.05-6.6 532.17-4.42 530.3-2.25 527.6-0.95 524.9 0.35 521.4 0.35ZM522.75-3.9L522.75-3.9Q524.1-3.9 525-5.3 525.9-6.7 526.35-8.88 526.8-11.05 526.8-13.3L526.8-13.3Q526.8-15.3 526.42-17.07 526.05-18.85 525.3-19.98 524.55-21.1 523.35-21.1L523.35-21.1Q522.05-21.1 521.12-19.7 520.2-18.3 519.75-16.15 519.3-14 519.3-11.7L519.3-11.7Q519.3-9.7 519.67-7.93 520.05-6.15 520.8-5.03 521.55-3.9 522.75-3.9ZM544.69 0.2L544.69 0.2Q542.89 0.2 541.49-1.28 540.09-2.75 540.09-5.45L540.09-5.45Q540.09-6.75 540.39-8.4 540.69-10.05 541.09-11.78 541.49-13.5 541.79-15.03 542.09-16.55 542.09-17.55L542.09-17.55Q542.09-18.6 541.72-19.23 541.34-19.85 540.74-19.85L540.74-19.85Q539.79-19.85 538.79-18.55L538.79-18.55 538.49-18.75Q538.44-19.55 538.84-20.65 539.24-21.75 540.09-22.78 540.94-23.8 542.27-24.5 543.59-25.2 545.39-25.2L545.39-25.2Q548.04-25.2 549.24-23.68 550.44-22.15 550.44-20L550.44-20Q550.44-19.65 550.42-19.28 550.39-18.9 550.34-18.55L550.34-18.55Q552.14-21.8 554.12-23.53 556.09-25.25 557.79-25.25L557.79-25.25Q559.39-25.25 560.14-24 560.89-22.75 560.89-21L560.89-21Q560.89-19.4 560.27-17.75 559.64-16.1 558.42-15.03 557.19-13.95 555.44-14L555.44-14 555.24-14.1Q555.19-15.4 554.39-16.15 553.59-16.9 552.59-16.9L552.59-16.9Q551.24-16.9 550.07-15.55 548.89-14.2 548.89-11.65L548.89-11.65Q548.89-10.1 549.24-8.3 549.59-6.5 549.59-5.25L549.59-5.25Q549.59-3.75 548.89-2.5 548.19-1.25 547.09-0.53 545.99 0.2 544.69 0.2ZM569.14-11.4L569.14-11.4Q568.04-11.4 567.16-11.83 566.29-12.25 566.14-13.25L566.14-13.25Q566.24-15.45 566.56-18.28 566.89-21.1 567.34-24.05 567.79-27 568.24-29.7 568.69-32.4 569.04-34.43 569.39-36.45 569.54-37.35L569.54-37.35Q569.69-38.15 570.89-38.7 572.09-39.25 573.64-39.25L573.64-39.25Q575.34-39.25 576.96-38.4 578.59-37.55 579.24-35.4L579.24-35.4Q578.54-34.3 577.49-31.9 576.44-29.5 575.39-26.33 574.34-23.15 573.59-19.58 572.84-16 572.69-12.45L572.69-12.45Q572.14-12 571.14-11.7 570.14-11.4 569.14-11.4ZM568.39 0.3L568.39 0.3Q566.29 0.3 564.94-1 563.59-2.3 563.59-4.25L563.59-4.25Q563.59-6.35 565.16-7.88 566.74-9.4 568.99-9.4L568.99-9.4Q571.09-9.4 572.46-8.08 573.84-6.75 573.84-4.8L573.84-4.8Q573.84-2.7 572.24-1.2 570.64 0.3 568.39 0.3Z" opacity="1" transform="matrix(1,0,0,1,0,0)" fill="#ffffff" class="slogan-text-1" data-fill-palette-color="secondary" id="text-1"></path></svg></g></svg></g></svg></g></svg></g><g></g></svg></g></svg></g></svg></g><g mask="url(#afb95c0f-2672-407a-8773-e377d6d6db7f)"><g transform="matrix(4.378571428571428, 0, 0, 4.378571428571428, 75.16, 1)"><svg xmlns="http://www.w3.org/2000/svg" xmlns:xlink="http://www.w3.org/1999/xlink" version="1.0" x="0" y="0" viewBox="22 22 56 56" enable-background="new 0 0 100 100" xml:space="preserve" height="56" width="56" class="icon-none" data-fill-palette-color="accent" id="none"><g fill="#13472e" data-fill-palette-color="accent"><g fill="#13472e" data-fill-palette-color="accent"><path d="M50 22C34.56 22 22 34.56 22 50S34.56 78 50 78 78 65.44 78 50 65.44 22 50 22M50 76C35.664 76 24 64.337 24 50S35.664 24 50 24 76 35.663 76 50 64.336 76 50 76" fill="#ffffff" data-fill-palette-color="accent"></path><path d="M43.112 35.707C40.128 35.707 38.224 39.754 38.224 42.54 38.224 45.07 39.78 46.927 42.112 47.339V64A1 1 0 1 0 44.112 64V47.339C46.444 46.927 48 45.071 48 42.54 48 39.754 46.096 35.707 43.112 35.707M43.112 45.427C41.716 45.428 40.224 44.67 40.224 42.54 40.224 40.327 41.789 37.707 43.112 37.707S46 40.327 46 42.54C46 44.669 44.508 45.428 43.112 45.428" fill="#ffffff" data-fill-palette-color="accent"></path><path d="M56 37.081A1 1 0 0 0 55 38.081V64A1 1 0 1 0 57 64V38.081A1 1 0 0 0 56 37.081" fill="#ffffff" data-fill-palette-color="accent"></path><path d="M61 37.081A1 1 0 0 0 60 38.081V64A1 1 0 1 0 62 64V38.081A1 1 0 0 0 61 37.081" fill="#ffffff" data-fill-palette-color="accent"></path></g></g></svg></g></g></svg></g><defs></defs></svg><rect width="395.52" height="247.2" fill="none" stroke="none" visibility="hidden"></rect></g></svg></g></svg>